<svg width="272" height="92" viewBox="0 0 272 92" fill="none" xmlns="http://www.w3.org/2000/svg">
<path d="M115.75 47.18C115.75 59.95 105.76 69.36 93.5 69.36C81.24 69.36 71.25 59.95 71.25 47.18C71.25 34.32 81.24 25 93.5 25C105.76 25 115.75 34.32 115.75 47.18ZM106.01 47.18C106.01 39.2 100.22 33.74 93.5 33.74C86.78 33.74 80.99 39.2 80.99 47.18C80.99 55.08 86.78 60.62 93.5 60.62C100.22 60.62 106.01 55.07 106.01 47.18Z" fill="#424242"/>
<path d="M163.75 47.18C163.75 59.95 153.76 69.36 141.5 69.36C129.24 69.36 119.25 59.95 119.25 47.18C119.25 34.33 129.24 25 141.5 25C153.76 25 163.75 34.32 163.75 47.18ZM154.01 47.18C154.01 39.2 148.22 33.74 141.5 33.74C134.78 33.74 128.99 39.2 128.99 47.18C128.99 55.08 134.78 60.62 141.5 60.62C148.22 60.62 154.01 55.07 154.01 47.18Z" fill="#424242"/>
<path d="M209.75 26.34V66.16C209.75 82.54 200.09 89.23 188.67 89.23C177.92 89.23 171.45 82.04 169.01 76.16L177.49 72.63C179 76.24 182.7 80.5 188.66 80.5C195.97 80.5 200.5 75.99 200.5 67.5V64.31H200.16C197.98 67 193.78 69.35 188.48 69.35C177.39 69.35 167.23 59.69 167.23 47.26C167.23 34.74 177.39 25 188.48 25C193.77 25 197.97 27.35 200.16 29.96H200.5V26.35H209.75V26.34ZM201.19 47.26C201.19 39.45 195.98 33.74 189.35 33.74C182.63 33.74 177 39.45 177 47.26C177 54.99 182.63 60.62 189.35 60.62C195.98 60.62 201.19 54.99 201.19 47.26Z" fill="#424242"/>
<path d="M225 3V68H215.5V3H225Z" fill="#424242"/>
<path d="M262.02 54.4783L269.58 59.5183C267.14 63.1283 261.26 69.3483 251.1 69.3483C238.5 69.3483 229.09 59.6083 229.09 47.1683C229.09 33.9783 238.58 24.9883 250.01 24.9883C261.52 24.9883 267.15 34.1483 268.99 39.0983L270 41.6183L240.35 53.8983C242.62 58.3483 246.15 60.6183 251.1 60.6183C256.06 60.6183 259.5 58.1783 262.02 54.4783ZM238.75 46.4983L258.57 38.2683C257.48 35.4983 254.2 33.5683 250.34 33.5683C245.39 33.5683 238.5 37.9383 238.75 46.4983V46.4983Z" fill="#424242"/>
<path d="M35.2894 41.4087V31.9988H66.9994C67.3094 33.6388 67.4694 35.5787 67.4694 37.6787C67.4694 44.7387 65.5394 53.4687 59.3194 59.6887C53.2694 65.9887 45.5394 69.3487 35.2994 69.3487C16.3194 69.3487 0.359375 53.8887 0.359375 34.9087C0.359375 15.9287 16.3194 0.46875 35.2994 0.46875C45.7994 0.46875 53.2794 4.58875 58.8994 9.95875L52.2594 16.5988C48.2294 12.8188 42.7694 9.87875 35.2894 9.87875C21.4294 9.87875 10.5894 21.0487 10.5894 34.9087C10.5894 48.7687 21.4294 59.9387 35.2894 59.9387C44.2794 59.9387 49.3994 56.3287 52.6794 53.0487C55.3394 50.3887 57.0894 46.5888 57.7794 41.3988L35.2894 41.4087V41.4087Z" fill="#424242"/>
</svg>
