<svg width="250" height="86" viewBox="0 0 250 86" fill="none" xmlns="http://www.w3.org/2000/svg">
<path d="M23.721 67.424C18.4403 67.424 13.6937 65.8813 9.481 62.796C5.26833 59.7107 2.361 55.3793 0.759 49.802L10.193 45.975C11.1423 49.4757 12.8037 52.3533 15.177 54.608C17.6097 56.8033 20.517 57.901 23.899 57.901C27.0437 57.901 29.7137 57.1 31.909 55.498C34.1043 53.8367 35.202 51.582 35.202 48.734C35.202 46.1233 34.223 43.9873 32.265 42.326C30.3663 40.6053 27.014 38.8847 22.208 37.164L18.203 35.74C13.931 34.2567 10.3413 32.1207 7.434 29.332C4.52667 26.5433 3.073 22.8647 3.073 18.296C3.073 15.1513 3.93333 12.244 5.654 9.574C7.37467 6.904 9.748 4.79766 12.774 3.255C15.8593 1.653 19.3303 0.851995 23.187 0.851995C28.7643 0.851995 33.2143 2.21666 36.537 4.946C39.8597 7.616 42.0847 10.642 43.212 14.024L34.223 17.851C33.5703 15.8337 32.3243 14.0537 30.485 12.511C28.6457 10.9683 26.2723 10.197 23.365 10.197C20.4577 10.197 17.9953 10.9387 15.978 12.422C14.02 13.9053 13.041 15.804 13.041 18.118C13.041 20.3133 13.931 22.123 15.711 23.547C17.491 24.971 20.2797 26.3357 24.077 27.641L28.082 28.976C33.5407 30.8747 37.7533 33.3667 40.72 36.452C43.746 39.478 45.259 43.5423 45.259 48.645C45.259 52.7983 44.191 56.299 42.055 59.147C39.919 61.9357 37.1897 64.0123 33.867 65.377C30.6037 66.7417 27.2217 67.424 23.721 67.424ZM54.7062 20.61H64.0512V26.573H64.4962C65.8015 24.4963 67.7299 22.746 70.2812 21.322C72.8325 19.898 75.7102 19.186 78.9142 19.186C83.0082 19.186 86.7165 20.2243 90.0392 22.301C93.3619 24.3777 95.9725 27.2553 97.8712 30.934C99.8292 34.5533 100.808 38.677 100.808 43.305C100.808 47.933 99.8292 52.0863 97.8712 55.765C95.9725 59.3843 93.3619 62.2323 90.0392 64.309C86.7165 66.3857 83.0082 67.424 78.9142 67.424C75.7102 67.424 72.8325 66.712 70.2812 65.288C67.7299 63.864 65.8015 62.1433 64.4962 60.126H64.0512L64.4962 66.445V85.224H54.7062V20.61ZM77.4902 58.435C79.8635 58.435 82.0885 57.812 84.1652 56.566C86.2419 55.32 87.9032 53.54 89.1492 51.226C90.3952 48.912 91.0182 46.2717 91.0182 43.305C91.0182 40.3383 90.3952 37.7277 89.1492 35.473C87.9032 33.159 86.2419 31.379 84.1652 30.133C82.0885 28.887 79.8635 28.264 77.4902 28.264C75.1169 28.264 72.8919 28.887 70.8152 30.133C68.7979 31.379 67.1662 33.159 65.9202 35.473C64.6742 37.7277 64.0512 40.3383 64.0512 43.305C64.0512 46.2717 64.6742 48.912 65.9202 51.226C67.1662 53.54 68.7979 55.32 70.8152 56.566C72.8919 57.812 75.1169 58.435 77.4902 58.435ZM123.971 67.424C120.708 67.424 117.8 66.801 115.249 65.555C112.698 64.2497 110.71 62.44 109.286 60.126C107.862 57.7527 107.15 55.0827 107.15 52.116C107.15 47.4287 108.9 43.7203 112.401 40.991C115.961 38.2617 120.441 36.897 125.84 36.897C128.51 36.897 130.913 37.164 133.049 37.698C135.185 38.1727 136.876 38.7067 138.122 39.3V36.986C138.122 34.1973 137.084 31.9427 135.007 30.222C132.93 28.442 130.26 27.552 126.997 27.552C124.683 27.552 122.488 28.0563 120.411 29.065C118.394 30.0737 116.762 31.468 115.516 33.248L108.663 27.997C110.68 25.2083 113.291 23.0427 116.495 21.5C119.699 19.9573 123.259 19.186 127.175 19.186C133.761 19.186 138.834 20.8177 142.394 24.081C145.954 27.285 147.734 31.824 147.734 37.698V66H138.122V60.571H137.677C136.372 62.529 134.532 64.1607 132.159 65.466C129.786 66.7713 127.056 67.424 123.971 67.424ZM125.662 59.325C128.035 59.325 130.171 58.7613 132.07 57.634C133.969 56.5067 135.452 54.9937 136.52 53.095C137.588 51.1963 138.122 49.1493 138.122 46.954C136.757 46.1827 135.155 45.5597 133.316 45.085C131.536 44.6103 129.667 44.373 127.709 44.373C124.03 44.373 121.331 45.1147 119.61 46.598C117.889 48.022 117.029 49.891 117.029 52.205C117.029 54.2817 117.83 56.0023 119.432 57.367C121.034 58.6723 123.111 59.325 125.662 59.325ZM178.972 67.424C174.463 67.424 170.399 66.3857 166.779 64.309C163.219 62.2323 160.431 59.3843 158.413 55.765C156.455 52.0863 155.476 47.933 155.476 43.305C155.476 38.677 156.455 34.5533 158.413 30.934C160.431 27.2553 163.219 24.3777 166.779 22.301C170.399 20.2243 174.463 19.186 178.972 19.186C183.956 19.186 188.199 20.3133 191.699 22.568C195.2 24.8227 197.692 27.8783 199.175 31.735L190.186 35.473C188.169 30.667 184.342 28.264 178.705 28.264C176.273 28.264 174.018 28.887 171.941 30.133C169.924 31.379 168.292 33.159 167.046 35.473C165.86 37.7277 165.266 40.3383 165.266 43.305C165.266 46.2717 165.86 48.912 167.046 51.226C168.292 53.54 169.924 55.32 171.941 56.566C174.018 57.812 176.273 58.435 178.705 58.435C181.553 58.435 183.986 57.812 186.003 56.566C188.08 55.2607 189.652 53.4213 190.72 51.048L199.531 54.875C197.811 58.7317 195.2 61.7873 191.699 64.042C188.199 66.2967 183.956 67.424 178.972 67.424ZM228.16 67.424C223.71 67.424 219.705 66.3857 216.145 64.309C212.644 62.2323 209.885 59.3843 207.868 55.765C205.91 52.0863 204.931 47.9627 204.931 43.394C204.931 39.0627 205.88 35.0577 207.779 31.379C209.737 27.641 212.436 24.6743 215.878 22.479C219.319 20.2837 223.235 19.186 227.626 19.186C232.194 19.186 236.14 20.1947 239.463 22.212C242.845 24.2293 245.396 26.9883 247.117 30.489C248.897 33.9897 249.787 37.9353 249.787 42.326C249.787 43.1567 249.698 44.195 249.52 45.441H214.721C215.077 49.6537 216.56 52.917 219.171 55.231C221.841 57.4857 224.926 58.613 228.427 58.613C231.215 58.613 233.618 57.99 235.636 56.744C237.712 55.4387 239.374 53.6883 240.62 51.493L248.897 55.409C246.761 59.147 243.972 62.084 240.531 64.22C237.089 66.356 232.966 67.424 228.16 67.424ZM239.819 37.965C239.7 36.363 239.196 34.7907 238.306 33.248C237.416 31.646 236.051 30.311 234.212 29.243C232.432 28.175 230.236 27.641 227.626 27.641C224.481 27.641 221.811 28.5903 219.616 30.489C217.48 32.3283 215.996 34.8203 215.166 37.965H239.819Z" fill="#424242"/>
</svg>
