<svg width="142" height="23" viewBox="0 0 142 23" fill="none" xmlns="http://www.w3.org/2000/svg">
<path d="M6.647 17.368C5.28233 17.368 4.05567 16.9693 2.967 16.172C1.87833 15.3747 1.127 14.2553 0.713 12.814L3.151 11.825C3.39633 12.7297 3.82567 13.4733 4.439 14.056C5.06767 14.6233 5.819 14.907 6.693 14.907C7.50567 14.907 8.19567 14.7 8.763 14.286C9.33033 13.8567 9.614 13.274 9.614 12.538C9.614 11.8633 9.361 11.3113 8.855 10.882C8.36433 10.4373 7.498 9.99267 6.256 9.548L5.221 9.18C4.117 8.79667 3.18933 8.24467 2.438 7.524C1.68667 6.80333 1.311 5.85267 1.311 4.672C1.311 3.85933 1.53333 3.108 1.978 2.418C2.42267 1.728 3.036 1.18367 3.818 0.784999C4.61533 0.370999 5.51233 0.163999 6.509 0.163999C7.95033 0.163999 9.10033 0.516665 9.959 1.222C10.8177 1.912 11.3927 2.694 11.684 3.568L9.361 4.557C9.19233 4.03567 8.87033 3.57567 8.395 3.177C7.91967 2.77833 7.30633 2.579 6.555 2.579C5.80367 2.579 5.16733 2.77067 4.646 3.154C4.14 3.53733 3.887 4.028 3.887 4.626C3.887 5.19333 4.117 5.661 4.577 6.029C5.037 6.397 5.75767 6.74967 6.739 7.087L7.774 7.432C9.18467 7.92267 10.2733 8.56667 11.04 9.364C11.822 10.146 12.213 11.1963 12.213 12.515C12.213 13.5883 11.937 14.493 11.385 15.229C10.833 15.9497 10.1277 16.4863 9.269 16.839C8.42567 17.1917 7.55167 17.368 6.647 17.368ZM14.6544 5.27H17.0694V6.811H17.1844C17.5217 6.27433 18.0201 5.822 18.6794 5.454C19.3387 5.086 20.0824 4.902 20.9104 4.902C21.9684 4.902 22.9267 5.17033 23.7854 5.707C24.6441 6.24367 25.3187 6.98733 25.8094 7.938C26.3154 8.87333 26.5684 9.939 26.5684 11.135C26.5684 12.331 26.3154 13.4043 25.8094 14.355C25.3187 15.2903 24.6441 16.0263 23.7854 16.563C22.9267 17.0997 21.9684 17.368 20.9104 17.368C20.0824 17.368 19.3387 17.184 18.6794 16.816C18.0201 16.448 17.5217 16.0033 17.1844 15.482H17.0694L17.1844 17.115V21.968H14.6544V5.27ZM20.5424 15.045C21.1557 15.045 21.7307 14.884 22.2674 14.562C22.8041 14.24 23.2334 13.78 23.5554 13.182C23.8774 12.584 24.0384 11.9017 24.0384 11.135C24.0384 10.3683 23.8774 9.69367 23.5554 9.111C23.2334 8.513 22.8041 8.053 22.2674 7.731C21.7307 7.409 21.1557 7.248 20.5424 7.248C19.9291 7.248 19.3541 7.409 18.8174 7.731C18.2961 8.053 17.8744 8.513 17.5524 9.111C17.2304 9.69367 17.0694 10.3683 17.0694 11.135C17.0694 11.9017 17.2304 12.584 17.5524 13.182C17.8744 13.78 18.2961 14.24 18.8174 14.562C19.3541 14.884 19.9291 15.045 20.5424 15.045ZM32.5543 17.368C31.711 17.368 30.9597 17.207 30.3003 16.885C29.641 16.5477 29.1273 16.08 28.7593 15.482C28.3913 14.8687 28.2073 14.1787 28.2073 13.412C28.2073 12.2007 28.6597 11.2423 29.5643 10.537C30.4843 9.83167 31.642 9.479 33.0373 9.479C33.7273 9.479 34.3483 9.548 34.9003 9.686C35.4523 9.80867 35.8893 9.94667 36.2113 10.1V9.502C36.2113 8.78133 35.943 8.19867 35.4063 7.754C34.8697 7.294 34.1797 7.064 33.3363 7.064C32.7383 7.064 32.171 7.19433 31.6343 7.455C31.113 7.71567 30.6913 8.076 30.3693 8.536L28.5983 7.179C29.1197 6.45833 29.7943 5.89867 30.6223 5.5C31.4503 5.10133 32.3703 4.902 33.3823 4.902C35.0843 4.902 36.3953 5.32367 37.3153 6.167C38.2353 6.995 38.6953 8.168 38.6953 9.686V17H36.2113V15.597H36.0963C35.759 16.103 35.2837 16.5247 34.6703 16.862C34.057 17.1993 33.3517 17.368 32.5543 17.368ZM32.9913 15.275C33.6047 15.275 34.1567 15.1293 34.6473 14.838C35.138 14.5467 35.5213 14.1557 35.7973 13.665C36.0733 13.1743 36.2113 12.6453 36.2113 12.078C35.8587 11.8787 35.4447 11.7177 34.9693 11.595C34.5093 11.4723 34.0263 11.411 33.5203 11.411C32.5697 11.411 31.872 11.6027 31.4273 11.986C30.9827 12.354 30.7603 12.837 30.7603 13.435C30.7603 13.9717 30.9673 14.4163 31.3813 14.769C31.7953 15.1063 32.332 15.275 32.9913 15.275ZM46.7682 17.368C45.6028 17.368 44.5525 17.0997 43.6172 16.563C42.6972 16.0263 41.9765 15.2903 41.4552 14.355C40.9492 13.4043 40.6962 12.331 40.6962 11.135C40.6962 9.939 40.9492 8.87333 41.4552 7.938C41.9765 6.98733 42.6972 6.24367 43.6172 5.707C44.5525 5.17033 45.6028 4.902 46.7682 4.902C48.0562 4.902 49.1525 5.19333 50.0572 5.776C50.9618 6.35867 51.6058 7.14833 51.9892 8.145L49.6662 9.111C49.1448 7.869 48.1558 7.248 46.6992 7.248C46.0705 7.248 45.4878 7.409 44.9512 7.731C44.4298 8.053 44.0082 8.513 43.6862 9.111C43.3795 9.69367 43.2262 10.3683 43.2262 11.135C43.2262 11.9017 43.3795 12.584 43.6862 13.182C44.0082 13.78 44.4298 14.24 44.9512 14.562C45.4878 14.884 46.0705 15.045 46.6992 15.045C47.4352 15.045 48.0638 14.884 48.5852 14.562C49.1218 14.2247 49.5282 13.7493 49.8042 13.136L52.0812 14.125C51.6365 15.1217 50.9618 15.9113 50.0572 16.494C49.1525 17.0767 48.0562 17.368 46.7682 17.368ZM59.4794 17.368C58.3294 17.368 57.2944 17.0997 56.3744 16.563C55.4698 16.0263 54.7568 15.2903 54.2354 14.355C53.7294 13.4043 53.4764 12.3387 53.4764 11.158C53.4764 10.0387 53.7218 9.00367 54.2124 8.053C54.7184 7.087 55.4161 6.32033 56.3054 5.753C57.1948 5.18567 58.2068 4.902 59.3414 4.902C60.5221 4.902 61.5418 5.16267 62.4004 5.684C63.2744 6.20533 63.9338 6.91833 64.3784 7.823C64.8384 8.72767 65.0684 9.74733 65.0684 10.882C65.0684 11.0967 65.0454 11.365 64.9994 11.687H56.0064C56.0984 12.7757 56.4818 13.619 57.1564 14.217C57.8464 14.7997 58.6438 15.091 59.5484 15.091C60.2691 15.091 60.8901 14.93 61.4114 14.608C61.9481 14.2707 62.3774 13.8183 62.6994 13.251L64.8384 14.263C64.2864 15.229 63.5658 15.988 62.6764 16.54C61.7871 17.092 60.7214 17.368 59.4794 17.368ZM62.4924 9.755C62.4618 9.341 62.3314 8.93467 62.1014 8.536C61.8714 8.122 61.5188 7.777 61.0434 7.501C60.5834 7.225 60.0161 7.087 59.3414 7.087C58.5288 7.087 57.8388 7.33233 57.2714 7.823C56.7194 8.29833 56.3361 8.94233 56.1214 9.755H62.4924ZM73.131 0.532H78.099C79.7857 0.532 81.2577 0.884666 82.515 1.59C83.7724 2.28 84.7383 3.246 85.413 4.488C86.0877 5.73 86.425 7.156 86.425 8.766C86.425 10.376 86.0877 11.802 85.413 13.044C84.7383 14.286 83.7724 15.2597 82.515 15.965C81.2577 16.655 79.7857 17 78.099 17H73.131V0.532ZM78.099 15.137C80.0463 15.137 81.5873 14.5773 82.722 13.458C83.872 12.3387 84.447 10.7747 84.447 8.766C84.447 6.75733 83.872 5.19333 82.722 4.074C81.5873 2.95467 80.0463 2.395 78.099 2.395H75.063V15.137H78.099ZM93.796 17.368C92.6766 17.368 91.6723 17.0997 90.783 16.563C89.8936 16.0263 89.196 15.2903 88.69 14.355C88.1993 13.4043 87.954 12.3387 87.954 11.158C87.954 10.0233 88.184 8.98067 88.644 8.03C89.1193 7.07933 89.7863 6.32033 90.645 5.753C91.5036 5.18567 92.5003 4.902 93.635 4.902C94.785 4.902 95.7816 5.16267 96.625 5.684C97.4683 6.19 98.1123 6.89533 98.557 7.8C99.017 8.70467 99.247 9.73967 99.247 10.905C99.247 11.135 99.224 11.3343 99.178 11.503H89.909C89.955 12.3923 90.1696 13.1437 90.553 13.757C90.9363 14.3703 91.4193 14.8303 92.002 15.137C92.6 15.4437 93.221 15.597 93.865 15.597C95.3676 15.597 96.5253 14.8917 97.338 13.481L98.994 14.286C98.488 15.2367 97.798 15.988 96.924 16.54C96.0653 17.092 95.0226 17.368 93.796 17.368ZM97.177 9.893C97.1463 9.40233 97.0083 8.91167 96.763 8.421C96.5176 7.93033 96.1266 7.51633 95.59 7.179C95.0686 6.84167 94.4093 6.673 93.612 6.673C92.692 6.673 91.91 6.972 91.266 7.57C90.6373 8.15267 90.2233 8.927 90.024 9.893H97.177ZM105.741 17.368C104.484 17.368 103.434 17.0767 102.59 16.494C101.747 15.896 101.149 15.137 100.796 14.217L102.544 13.435C102.836 14.1403 103.265 14.6847 103.832 15.068C104.415 15.4513 105.051 15.643 105.741 15.643C106.477 15.643 107.106 15.4973 107.627 15.206C108.149 14.8993 108.409 14.47 108.409 13.918C108.409 13.4273 108.202 13.0363 107.788 12.745C107.374 12.4383 106.723 12.1777 105.833 11.963L104.407 11.595C103.472 11.365 102.705 10.974 102.107 10.422C101.509 9.87 101.21 9.157 101.21 8.283C101.21 7.60833 101.41 7.018 101.808 6.512C102.222 5.99067 102.767 5.592 103.441 5.316C104.116 5.04 104.844 4.902 105.626 4.902C106.654 4.902 107.566 5.12433 108.363 5.569C109.176 6.01367 109.751 6.63467 110.088 7.432L108.386 8.214C107.865 7.17133 106.937 6.65 105.603 6.65C104.959 6.65 104.392 6.80333 103.901 7.11C103.426 7.40133 103.188 7.777 103.188 8.237C103.188 8.66633 103.357 9.019 103.694 9.295C104.032 9.55567 104.538 9.77033 105.212 9.939L106.914 10.376C108.064 10.6673 108.931 11.1043 109.513 11.687C110.096 12.2543 110.387 12.952 110.387 13.78C110.387 14.5007 110.18 15.137 109.766 15.689C109.352 16.2257 108.793 16.6397 108.087 16.931C107.382 17.2223 106.6 17.368 105.741 17.368ZM113.556 3.108C113.173 3.108 112.843 2.97 112.567 2.694C112.291 2.418 112.153 2.08833 112.153 1.705C112.153 1.32167 112.291 0.999666 112.567 0.739C112.843 0.463 113.173 0.324999 113.556 0.324999C113.939 0.324999 114.269 0.463 114.545 0.739C114.821 0.999666 114.959 1.32167 114.959 1.705C114.959 2.08833 114.821 2.418 114.545 2.694C114.284 2.97 113.955 3.108 113.556 3.108ZM112.59 5.27H114.522V17H112.59V5.27ZM122.634 22.336C121.254 22.336 120.112 22.014 119.207 21.37C118.318 20.726 117.72 19.9517 117.413 19.047L119.184 18.288C119.445 18.9627 119.874 19.507 120.472 19.921C121.086 20.3503 121.806 20.565 122.634 20.565C123.846 20.565 124.781 20.2123 125.44 19.507C126.115 18.8017 126.452 17.805 126.452 16.517V15.206H126.36C125.977 15.804 125.433 16.2947 124.727 16.678C124.037 17.046 123.248 17.23 122.358 17.23C121.346 17.23 120.419 16.9693 119.575 16.448C118.747 15.9267 118.088 15.1983 117.597 14.263C117.107 13.3277 116.861 12.262 116.861 11.066C116.861 9.88533 117.107 8.82733 117.597 7.892C118.088 6.94133 118.747 6.20533 119.575 5.684C120.419 5.16267 121.346 4.902 122.358 4.902C123.248 4.902 124.037 5.09367 124.727 5.477C125.433 5.845 125.977 6.33567 126.36 6.949H126.452V5.27H128.315V16.54C128.315 18.426 127.794 19.8597 126.751 20.841C125.709 21.8377 124.336 22.336 122.634 22.336ZM122.634 15.459C123.34 15.459 123.976 15.2827 124.543 14.93C125.126 14.5773 125.586 14.0713 125.923 13.412C126.276 12.7527 126.452 11.9707 126.452 11.066C126.452 10.146 126.276 9.35633 125.923 8.697C125.586 8.03767 125.126 7.53933 124.543 7.202C123.976 6.84933 123.34 6.673 122.634 6.673C121.929 6.673 121.285 6.84933 120.702 7.202C120.12 7.55467 119.652 8.06067 119.299 8.72C118.962 9.37933 118.793 10.1613 118.793 11.066C118.793 11.9707 118.962 12.7603 119.299 13.435C119.652 14.0943 120.12 14.6003 120.702 14.953C121.285 15.2903 121.929 15.459 122.634 15.459ZM131.206 5.27H133.069V6.995H133.161C133.483 6.41233 133.997 5.92167 134.702 5.523C135.407 5.109 136.159 4.902 136.956 4.902C138.367 4.902 139.44 5.316 140.176 6.144C140.927 6.95667 141.303 8.06833 141.303 9.479V17H139.348V9.778C139.348 8.68933 139.087 7.89967 138.566 7.409C138.045 6.91833 137.332 6.673 136.427 6.673C135.798 6.673 135.231 6.84933 134.725 7.202C134.234 7.55467 133.851 8.02233 133.575 8.605C133.299 9.17233 133.161 9.77033 133.161 10.399V17H131.206V5.27Z" fill="#424242"/>
</svg>
