<svg width="71" height="25" viewBox="0 0 71 25" fill="none" xmlns="http://www.w3.org/2000/svg">
<path d="M7.225 19.4C5.74167 19.4 4.40833 18.9667 3.225 18.1C2.04167 17.2333 1.225 16.0167 0.775 14.45L3.425 13.375C3.69167 14.3583 4.15833 15.1667 4.825 15.8C5.50833 16.4167 6.325 16.725 7.275 16.725C8.15833 16.725 8.90833 16.5 9.525 16.05C10.1417 15.5833 10.45 14.95 10.45 14.15C10.45 13.4167 10.175 12.8167 9.625 12.35C9.09167 11.8667 8.15 11.3833 6.8 10.9L5.675 10.5C4.475 10.0833 3.46667 9.48333 2.65 8.7C1.83333 7.91667 1.425 6.88333 1.425 5.6C1.425 4.71667 1.66667 3.9 2.15 3.15C2.63333 2.4 3.3 1.80833 4.15 1.375C5.01667 0.924999 5.99167 0.699999 7.075 0.699999C8.64167 0.699999 9.89167 1.08333 10.825 1.85C11.7583 2.6 12.3833 3.45 12.7 4.4L10.175 5.475C9.99167 4.90833 9.64167 4.40833 9.125 3.975C8.60833 3.54167 7.94167 3.325 7.125 3.325C6.30833 3.325 5.61667 3.53333 5.05 3.95C4.5 4.36667 4.225 4.9 4.225 5.55C4.225 6.16667 4.475 6.675 4.975 7.075C5.475 7.475 6.25833 7.85833 7.325 8.225L8.45 8.6C9.98333 9.13333 11.1667 9.83333 12 10.7C12.85 11.55 13.275 12.6917 13.275 14.125C13.275 15.2917 12.975 16.275 12.375 17.075C11.775 17.8583 11.0083 18.4417 10.075 18.825C9.15833 19.2083 8.20833 19.4 7.225 19.4ZM15.9287 6.25H18.5537V7.925H18.6787C19.0454 7.34167 19.587 6.85 20.3037 6.45C21.0204 6.05 21.8287 5.85 22.7287 5.85C23.8787 5.85 24.9204 6.14167 25.8537 6.725C26.787 7.30833 27.5204 8.11667 28.0537 9.15C28.6037 10.1667 28.8787 11.325 28.8787 12.625C28.8787 13.925 28.6037 15.0917 28.0537 16.125C27.5204 17.1417 26.787 17.9417 25.8537 18.525C24.9204 19.1083 23.8787 19.4 22.7287 19.4C21.8287 19.4 21.0204 19.2 20.3037 18.8C19.587 18.4 19.0454 17.9167 18.6787 17.35H18.5537L18.6787 19.125V24.4H15.9287V6.25ZM22.3287 16.875C22.9954 16.875 23.6204 16.7 24.2037 16.35C24.787 16 25.2537 15.5 25.6037 14.85C25.9537 14.2 26.1287 13.4583 26.1287 12.625C26.1287 11.7917 25.9537 11.0583 25.6037 10.425C25.2537 9.775 24.787 9.275 24.2037 8.925C23.6204 8.575 22.9954 8.4 22.3287 8.4C21.662 8.4 21.037 8.575 20.4537 8.925C19.887 9.275 19.4287 9.775 19.0787 10.425C18.7287 11.0583 18.5537 11.7917 18.5537 12.625C18.5537 13.4583 18.7287 14.2 19.0787 14.85C19.4287 15.5 19.887 16 20.4537 16.35C21.037 16.7 21.662 16.875 22.3287 16.875ZM35.3852 19.4C34.4685 19.4 33.6518 19.225 32.9352 18.875C32.2185 18.5083 31.6602 18 31.2602 17.35C30.8602 16.6833 30.6602 15.9333 30.6602 15.1C30.6602 13.7833 31.1518 12.7417 32.1352 11.975C33.1352 11.2083 34.3935 10.825 35.9102 10.825C36.6602 10.825 37.3352 10.9 37.9352 11.05C38.5352 11.1833 39.0102 11.3333 39.3602 11.5V10.85C39.3602 10.0667 39.0685 9.43333 38.4852 8.95C37.9018 8.45 37.1518 8.2 36.2352 8.2C35.5852 8.2 34.9685 8.34167 34.3852 8.625C33.8185 8.90833 33.3602 9.3 33.0102 9.8L31.0852 8.325C31.6518 7.54167 32.3852 6.93333 33.2852 6.5C34.1852 6.06667 35.1852 5.85 36.2852 5.85C38.1352 5.85 39.5602 6.30833 40.5602 7.225C41.5602 8.125 42.0602 9.4 42.0602 11.05V19H39.3602V17.475H39.2352C38.8685 18.025 38.3518 18.4833 37.6852 18.85C37.0185 19.2167 36.2518 19.4 35.3852 19.4ZM35.8602 17.125C36.5268 17.125 37.1268 16.9667 37.6602 16.65C38.1935 16.3333 38.6102 15.9083 38.9102 15.375C39.2102 14.8417 39.3602 14.2667 39.3602 13.65C38.9768 13.4333 38.5268 13.2583 38.0102 13.125C37.5102 12.9917 36.9852 12.925 36.4352 12.925C35.4018 12.925 34.6435 13.1333 34.1602 13.55C33.6768 13.95 33.4352 14.475 33.4352 15.125C33.4352 15.7083 33.6602 16.1917 34.1102 16.575C34.5602 16.9417 35.1435 17.125 35.8602 17.125ZM50.835 19.4C49.5683 19.4 48.4266 19.1083 47.41 18.525C46.41 17.9417 45.6266 17.1417 45.06 16.125C44.51 15.0917 44.235 13.925 44.235 12.625C44.235 11.325 44.51 10.1667 45.06 9.15C45.6266 8.11667 46.41 7.30833 47.41 6.725C48.4266 6.14167 49.5683 5.85 50.835 5.85C52.235 5.85 53.4266 6.16667 54.41 6.8C55.3933 7.43333 56.0933 8.29167 56.51 9.375L53.985 10.425C53.4183 9.075 52.3433 8.4 50.76 8.4C50.0766 8.4 49.4433 8.575 48.86 8.925C48.2933 9.275 47.835 9.775 47.485 10.425C47.1516 11.0583 46.985 11.7917 46.985 12.625C46.985 13.4583 47.1516 14.2 47.485 14.85C47.835 15.5 48.2933 16 48.86 16.35C49.4433 16.7 50.0766 16.875 50.76 16.875C51.56 16.875 52.2433 16.7 52.81 16.35C53.3933 15.9833 53.835 15.4667 54.135 14.8L56.61 15.875C56.1266 16.9583 55.3933 17.8167 54.41 18.45C53.4266 19.0833 52.235 19.4 50.835 19.4ZM64.6516 19.4C63.4016 19.4 62.2766 19.1083 61.2766 18.525C60.2932 17.9417 59.5182 17.1417 58.9516 16.125C58.4016 15.0917 58.1266 13.9333 58.1266 12.65C58.1266 11.4333 58.3932 10.3083 58.9266 9.275C59.4766 8.225 60.2349 7.39167 61.2016 6.775C62.1682 6.15833 63.2682 5.85 64.5016 5.85C65.7849 5.85 66.8932 6.13333 67.8266 6.7C68.7766 7.26667 69.4932 8.04167 69.9766 9.025C70.4766 10.0083 70.7266 11.1167 70.7266 12.35C70.7266 12.5833 70.7016 12.875 70.6516 13.225H60.8766C60.9766 14.4083 61.3932 15.325 62.1266 15.975C62.8766 16.6083 63.7432 16.925 64.7266 16.925C65.5099 16.925 66.1849 16.75 66.7516 16.4C67.3349 16.0333 67.8016 15.5417 68.1516 14.925L70.4766 16.025C69.8766 17.075 69.0932 17.9 68.1266 18.5C67.1599 19.1 66.0016 19.4 64.6516 19.4ZM67.9266 11.125C67.8932 10.675 67.7516 10.2333 67.5016 9.8C67.2516 9.35 66.8682 8.975 66.3516 8.675C65.8516 8.375 65.2349 8.225 64.5016 8.225C63.6182 8.225 62.8682 8.49167 62.2516 9.025C61.6516 9.54167 61.2349 10.2417 61.0016 11.125H67.9266Z" fill="#424242"/>
</svg>
